<?xml version="1.0" encoding="utf-8"?>
<!-- Generator: Adobe Illustrator 26.5.0, SVG Export Plug-In . SVG Version: 6.00 Build 0)  -->
<svg version="1.1" xmlns="http://www.w3.org/2000/svg" xmlns:xlink="http://www.w3.org/1999/xlink" x="0px" y="0px"
	 viewBox="0 0 600 600" style="enable-background:new 0 0 600 600;" xml:space="preserve">
<style type="text/css">
	.st0{fill:#94CCE9;}
	.st1{fill:#FFFFFF;}
	.st2{font-family:'NotoSans-Bold';}
	.st3{font-size:25.7056px;}
	.st4{font-family:'NotoSans-Regular';}
	.st5{letter-spacing:70.3;}
</style>
<g id="Layer_1">
	<g>
		<path class="st0" d="M162.3,226.5c-4.4-12.6-1.8-26.8,4.1-38.7c6-11.9,15-22,24.2-31.7c25.6-27.2,53-53.4,85.6-71.7
			c18-10.1,38-17.8,58.7-18.2s42.2,7.5,54.9,23.9c10.6,13.6,14.1,31.6,14.2,48.9c0.1,16.5-3.1,33.8-13.7,46.5
			c39.4-3.7,81.1,5,111.7,30.1s47.6,68.1,36.1,105.9c-10.8,35.7-43.2,60.4-75.9,78.3c-3.5,1.9-7.2,3.9-9,7.4
			c-1.8,3.3-1.6,7.2-1.3,10.9c1,16.3,2,32.6,3,48.8c0.4,7.1,0.8,14.5-1.8,21.1c-3.6,9.2-12.3,15.4-21,20.1
			c-29,15.7-66.1,20.9-94.5,4.1c-12.8-7.6-22.8-18.9-35.1-27.3c-26.2-17.9-60.4-20.5-91.7-15.4s-61,17.4-91.3,27.1
			c-15.9,5.1-35.2,8.9-47.9-1.9C65,489.3,61.6,481.2,60,473c-3.1-15.9,0.1-32.9,8.7-46.6c10.7-16.9,28.4-27.9,42.3-42.3
			c4.2-4.4,8.3-10.5,6-16.1c-2.3-5.5-9.3-6.9-15.1-8.4c-24.2-6.3-43.4-29.5-43.4-54.5c-0.1-25,20.3-48.9,45.1-51.3
			c4.2-0.4,9.5-1.1,10.6-5.1c0.8-2.9-1.3-5.8-1.7-8.8c-0.8-6.4,6.5-11.3,13-11.2s12.5,3.2,18.9,4.4c6.4,1.3,14.3-0.2,17-6.1"/>
	</g>
</g>
<g id="Layer_2">
	<text transform="matrix(0.8538 0 0 1 252.2123 269.9533)"><tspan x="0" y="0" class="st1 st2 st3">Personal</tspan><tspan x="-112.4" y="30.8" class="st1 st4 st3">duckyrshannon@gmail.com</tspan><tspan x="17.4" y="61.7" class="st1 st4 st3 st5">	</tspan><tspan x="15.5" y="92.5" class="st1 st2 st3">Phone</tspan><tspan x="-29.4" y="123.4" class="st1 st4 st3">(818)217-5002</tspan></text>
	<circle class="st0" cx="494.9" cy="428.9" r="36.8"/>
	<polygon class="st0" points="458.1,139.3 490.1,54.2 548.6,131.2 	"/>
	<circle class="st0" cx="136.9" cy="204.4" r="13.1"/>
</g>
</svg>
