<?xml version="1.0" encoding="utf-8"?>
<!-- Generator: Adobe Illustrator 26.5.0, SVG Export Plug-In . SVG Version: 6.00 Build 0)  -->
<svg version="1.1" xmlns="http://www.w3.org/2000/svg" xmlns:xlink="http://www.w3.org/1999/xlink" x="0px" y="0px"
	 viewBox="0 0 394.7 424.8" style="enable-background:new 0 0 394.7 424.8;" xml:space="preserve">
<style type="text/css">
	.st0{fill:#93CCEA;}
	.st1{fill:#6495ED;}
	.st2{fill:#FFF492;}
	.st3{fill:#FCFCFC;}
	.st4{fill:#FFAA80;}
	.st5{fill:#FFB48A;}
	.st6{fill:none;stroke:#000000;stroke-miterlimit:10;}
	.st7{fill:none;stroke:#000000;stroke-width:1;stroke-miterlimit:10.0006;}
	.st8{fill:none;stroke:#000000;stroke-width:0.5;stroke-linecap:round;stroke-linejoin:round;}
	.st9{display:none;}
	.st10{display:inline;}
	.st11{fill:#FFFFFF;}
	.st12{clip-path:url(#SVGID_00000041273043321631351310000012750037137659573158_);}
	.st13{fill:none;stroke:#FFFFFF;stroke-miterlimit:10;}
	.st14{fill:#FFFFFF;stroke:#000000;stroke-miterlimit:10;}
</style>
<g id="Layer_2">
	<polygon class="st0" points="3.2,319.8 307.5,34.3 344.6,76.6 31.2,362.9 	"/>
	<polygon class="st1" points="38.6,377.1 349.9,84.6 387,127 66.5,420.5 	"/>
</g>
<g id="Layer_1">
	<g id="Ducky">
		<g id="XMLID_00000052082310355554151930000011068721099701512075_">
			<g>
				<path class="st2" d="M269.8,218.9c2.6-0.3,18.6-5.7,17.3,0.3c-1.1,5.5-7.3,12.1-10.8,16.3c-2.1,2.6-4.5,5-7,7.2
					c-13,10.9-30.9,13.4-47.3,13.5c-1.9,0-3.9,0.1-5.3,1.3c-1.3,1.2-1.7,3.2-1.4,4.9s1,3.4,1.6,5.1c1.7,4.7-39.2-1.8-46.3-3.5
					c-7-1.6-14-3.5-20.3-6.9c-6.3-3.5-11.8-8.8-14.2-15.6c-2.2-6.4-1.4-13.4-0.1-20.1c1.8-9.7,5.1-19.1,7-28.7l29.6-7.8
					c2.4,6,12.7,9.4,18.5,10.7c6.8,1.6,13.9,1.6,21,1.2c8.7-0.4,17.5-1.6,25.9-4.1c8.3-2.4,14.9-6.6,22.1-11.1
					c0,4.8-4.7,8.9-7.7,12.3c-4.2,4.6-8.2,9.1-11.7,14.2c-0.9,1.2-1.7,2.5-2.1,4c-0.4,1.5-0.1,3.2,1,4.2c0.8,0.8,1.9,1,2.9,1.3
					C251.4,219.6,260.7,220,269.8,218.9z"/>
				<path class="st2" d="M245.2,327.7l0,0.2c-0.9,2.8-1.7,5.7-2.4,8.7L230,382.2c-7.2-17.7-14.4-35.5-21.7-53.1
					C220.8,329.7,233.1,329.4,245.2,327.7z"/>
				<path class="st3" d="M245.2,327.9l-2.4,8.7C243.5,333.6,244.3,330.7,245.2,327.9z"/>
				<path class="st2" d="M243.2,387.8c0.3,1,0.7,2,1,3l-14.1-8.5c0,0,0,0,0,0h11.5C242,384.1,242.6,386,243.2,387.8z"/>
				<path class="st2" d="M230,382.2l12.7-45.5c-3.5,14.6-4.7,31.1-1.2,45.6L230,382.2C230.1,382.2,230,382.2,230,382.2z"/>
				<path class="st4" d="M230.1,382.3l14.1,8.5c0.2,0.8,0.4,1.7,0.3,2.5c-0.2,4.5-4.4,7.4-7.7,9.8c-4.1,3-8.6,5.2-13.4,6.8
					c-0.8,0.2-1.7,0.4-2.3-0.1c-0.4-0.4-0.5-1-0.4-1.6c0.1-0.6,0.5-1.1,0.8-1.6c0.6-0.9,2.9-4.3,2.1-5.4c-0.6-0.8-5.1-0.3-6.3-0.3
					c-4.6-0.2-9.3-0.5-13.9-1c-1.3-0.1-2.6-0.3-3.7-1.1c-0.2-0.2-0.4-0.4-0.4-0.6c0-0.2,0.1-0.4,0.2-0.6c0.8-0.9,2-1.3,3.2-1.6
					c4.6-1,9.6-1.3,13.6-3.7c0.9-0.5,2.2-1.8,1.1-2.8c-0.3-0.3-0.6-0.4-1-0.6c-2-0.8-4-1.7-6.1-2.5c3.2-1.1,6.3-2.3,9.7-3
					C223.4,382.8,226.7,382.4,230.1,382.3L230.1,382.3z"/>
				<path class="st3" d="M230,382.2L230,382.2C230.1,382.2,230.1,382.3,230,382.2L230,382.2z"/>
				<path class="st3" d="M230,382.2L230,382.2C230,382.2,230.1,382.2,230,382.2L230,382.2z"/>
				<path class="st3" d="M230,382.2L230,382.2L208.4,329C215.7,346.7,222.9,364.4,230,382.2z"/>
				<path class="st2" d="M208.4,329c-0.1,0-0.2,0-0.3,0c-19.7-1.1-39.3-4.8-58.1-10.6c-12.3-3.8-24.7-8.8-35.7-15.8c0,0,0,0,0,0
					c-1.2-0.9-2.3-1.8-3.4-2.7c-4.5-3.7-8.8-7.5-12.9-11.5c-4-3.9-7.8-8.1-10.8-12.8c-4.9-8.5-7.9-17.9-8.3-27.7
					c-0.5-12.3,2.8-24.5,7.9-35.7c9.8-21.2,25.8-38.1,40.3-56.1c4.3-5.3,8.5-10.6,12.2-16.4c1-1.6,5.4-7.6,3.2-9.5
					c-9.4-8.1-18.1-16.9-26.2-26.2l22.2-16l0.7-0.5c-3-7.9-6-15.8-9-23.6c-1.6-4.1-3.1-8.2-4.7-12.3c-0.6-1.5-1.1-3-1.7-4.4
					c-0.5-1.2-0.6-2.5-1.7-2.8c7.2-2,14-5.4,20.8-8.4c12.3-5.4,25.3-9.6,38.8-10.3c24.5-1.2,46.6,11.5,53.8,35.4
					c2.9,9.6,3.1,19.9,1.3,29.8c-1.2,6.7-4.5,14.3-3.9,21.2c0.4,4.9,4.1,10.8,9.5,11.1c-6.8,3.5-14.1,6-21.6,7.6
					c0.1,4.8,0.1,9.6,0.2,14.4c0-2.2-4.3-5.8-5.9-7.1c-2.5-2-5.6-3.7-8.8-4.2c-6.4-1.1-12.3,2.8-15,8.5c-2.2,4.6-2.2,9.9-0.8,14.8
					c2.8,9.3,11,16.5,20.3,19.6c9.3,3.1,19.6,2.6,29.1,0.1c16.4-4.3,31.8-13.4,47-20.7c16.5-8,33-15.9,49.6-23.9
					c7.6-3.7,15.2-7.3,22.8-11c0,0,0.3,6.7,0.3,7.4c-0.2,2.6-0.8,5.1-1.6,7.6c-1.5,5.1-3.9,10-6.1,14.9c-3.5,7.7-6.8,15.6-6.7,24.2
					c0,0.6,0.1,1.2,0.5,1.5c0.4,0.3,0.9,0.2,1.4,0c3.2-1,6.2-2.8,9.2-4.1c3-1.3,6-2.5,9.1-3.7c1.3-0.5,5.6-2.3,5.3,0.8
					c-3,25.4-11.1,49.7-22.8,72.5c-11,21.2-24.2,42.8-42.4,58.8c-6,5.3-12.6,9.9-19.7,13.6c-12.9,6.8-26.5,10.8-40.5,12.9
					C233.1,329.4,220.8,329.7,208.4,329z M192.2,69.2c2.1-2.7,2.7-5.7,1.4-7.7c-2-3.1-7.7-2.9-12.8,0.4c-5.1,3.3-7.5,8.4-5.5,11.5
					c2,3.1,7.7,2.9,12.8-0.3C189.8,72,191.2,70.6,192.2,69.2z M287.1,219.2c1.3-6-14.8-0.7-17.3-0.3c-9.1,1.2-18.3,0.8-27.3-1.3
					c-1.1-0.2-2.2-0.5-2.9-1.3c-1.1-1-1.4-2.7-1-4.2c0.3-1.5,1.2-2.8,2.1-4c3.5-5,7.6-9.6,11.7-14.2c3-3.3,7.7-7.4,7.7-12.3
					c-7.2,4.5-13.8,8.7-22.1,11.1c-8.4,2.5-17.2,3.6-25.9,4.1c-7,0.4-14.1,0.3-21-1.2c-5.7-1.3-16.1-4.7-18.5-10.7l-29.6,7.8
					c-2,9.7-5.2,19-7,28.7c-1.2,6.7-2.1,13.7,0.1,20.1c2.3,6.8,7.9,12.1,14.2,15.6c6.3,3.5,13.3,5.3,20.3,6.9
					c7.1,1.7,48,8.2,46.3,3.5c-0.6-1.7-1.4-3.3-1.6-5.1s0.1-3.8,1.4-4.9c1.4-1.2,3.4-1.3,5.3-1.3c16.4-0.1,34.3-2.6,47.3-13.5
					c2.6-2.1,4.9-4.6,7-7.2C279.9,231.3,286,224.7,287.1,219.2z"/>
				<path d="M192.2,69.2c-1,1.4-2.5,2.7-4.2,3.8c-5.1,3.3-10.8,3.4-12.8,0.3c-2-3.1,0.5-8.2,5.5-11.5c5-3.3,10.8-3.4,12.8-0.4
					C194.9,63.6,194.3,66.5,192.2,69.2z"/>
				<path class="st5" d="M130,63.8c3,7.9,6,15.7,9,23.6c-8.7-2-17.6-4.4-24.8-9.8c-2.5-1.9-4.8-4.2-7-6.5c-0.2-0.2-0.5-0.5-0.7-0.8
					c-1.4-1.5-2.8-3-4.2-4.6c-1.4-1.5-2.7-3.1-4.1-4.7c-1.3-1.6-2.6-3.2-3.9-4.8s-2.6-3.3-3.8-4.9c-1.2-1.7-2.5-3.3-3.7-5
					c-1.2-1.7-2.4-3.4-3.6-5.1c-0.6-0.9-1.2-1.8-1.9-2.7c-0.2-0.3-1.3-2.4-1.6-2.4c2.7-0.3,5.7-0.2,8.1,1.2c0.9,0.5,1.8,1.1,2.6,1.7
					c1.2,0.9,2.3,1.9,3.6,2.7c7.1,4.8,16.4,5.3,24.8,3.5c1.1-0.2,2.1-0.5,3.2-0.8c1.1,0.2,1.2,1.6,1.7,2.8c0.6,1.5,1.1,3,1.7,4.4
					C126.9,55.6,128.5,59.7,130,63.8z"/>
				<path class="st2" d="M103.7,177.8c0.4,0,5.1-0.1,5.2-0.2c-0.8,1.3-1.9,2.6-2.8,3.8c-10.8,14.4-21.7,29.6-26,47.4
					c-0.1,0.4-9.4-3.7-10.2-4.1c-3.2-1.8-6.3-3.8-9.2-6.1c-5-3.9-11.8-8.9-12-15.9c5.6,2.5,12,3.7,18,2c2.7-0.8,5.4-2.1,7-4.4
					c-6.2,0.3-12.3-2-17.4-5.5c-5.1-3.5-9.2-8.2-13-13.2c1.9-1.6,4.4-2.4,6.9-2.6c2.5-0.2,5,0,7.5,0.1c8.7,0.6,17.5,0.5,26.2,0.1
					c4.4-0.2,8.8-0.5,13.2-0.9C99.3,178.2,101.5,178,103.7,177.8z"/>
				<path class="st3" d="M114.2,302.6c-9.5-6-18-13.5-24.4-22.8c-1-1.4-1.9-2.8-2.7-4.3c3,4.7,6.8,8.9,10.8,12.8
					c4.2,4,8.5,7.8,12.9,11.5C111.9,300.8,113.1,301.7,114.2,302.6z"/>
				<path class="st2" d="M114.2,302.6c0.4,0.3,1.6,0.9,1.8,1.4c0.3,0.7,0,0.6-0.7,0.9c-2.5,1.1-5.2,1.7-7.7,2.5c-3,1-6,2-9,3.1
					c-1.5,0.5-2.9,1-4.3,1.8c-1.1,0.7-2.1,1.5-3.1,2.4c-8.3,7.2-16.4,14.6-24.3,22.3l-1.6-10.5c3.1-10.1,6.5-20.1,9.7-30.2
					c0.8-2.6,1.6-5.2,2.4-7.8c0-0.1,0.1-0.2,0.1-0.3c0,0,0-0.1,0-0.1c1-3.5,2.1-7,2.9-10.5c0.8-3.6,1.1-7.3,1.3-11
					c0.2,0.3,0.3,0.7,0.4,1c-0.1-0.6-0.1-1.2-0.2-1.8c0-0.3,0-0.6,0.1-0.8c0.9,2.6,2,5.1,3.3,7.5c0.5,1,1.1,2,1.7,2.9
					c0.8,1.5,1.8,2.9,2.7,4.3C96.2,289.1,104.7,296.6,114.2,302.6C114.2,302.6,114.2,302.6,114.2,302.6z"/>
				<path class="st4" d="M85.6,36c1.8,0.7,3.3,1.8,4.9,3c-0.8-0.6-1.7-1.2-2.6-1.7c-2.4-1.3-5.4-1.5-8.1-1.2c0.3,0,1.4,2.1,1.6,2.4
					c0.6,0.9,1.2,1.8,1.9,2.7c1.2,1.7,2.4,3.4,3.6,5.1c1.2,1.7,2.4,3.4,3.7,5c1.2,1.7,2.5,3.3,3.8,4.9s2.6,3.2,3.9,4.8
					c1.3,1.6,2.7,3.2,4.1,4.7c1.4,1.6,2.8,3.1,4.2,4.6c0.2,0.2,0.5,0.5,0.7,0.8c2.2,2.3,4.5,4.6,7,6.5c7.1,5.4,16,7.8,24.8,9.8
					l-0.7,0.5l-22.2,16c-8.1-9.4-15.6-19.4-22.2-29.9C88,64.8,82.7,55,78,45c-0.9-1.9-1.8-4.1-1.1-6.1c0.5-1.3,1.5-2.3,2.8-2.8
					C81.5,35.3,83.7,35.3,85.6,36z"/>
				<path class="st4" d="M65.4,326.5l1.6,10.5c-1.4,1.3-2.9,2.7-4.7,3.1c-2,0.4-4-0.4-5.7-1.3c-7.9-4.1-13.7-11.3-19-18.6
					c2.9,1.3,5.8,2.6,8.6,3.9c0.6,0.3,1.3,0.6,2,0.4c1.3-0.3,0.8-1.7,0.5-2.6c-0.7-1.9-1.4-3.8-2.1-5.8c-1.3-3.7-2.7-7.5-4-11.2
					c-0.8-2.2-1.6-4.5-1-6.7c4.6,5.7,7.8,12.9,13.9,17c0.7-2,1.4-3.9,2.1-5.9c0.1-0.3,0.2-0.7,0.4-1c0.4-0.8,1.2-1.4,1.9-1.9
					c1.5,3,2.1,6.2,2.9,9.5C63.5,319.5,64.4,323,65.4,326.5z"/>
			</g>
			<g>
				<path class="st6" d="M87.1,275.6c-4.9-8.5-7.9-17.9-8.3-27.7c-0.5-12.3,2.8-24.5,7.9-35.7c9.8-21.2,25.8-38.1,40.3-56.1
					c4.3-5.3,8.5-10.6,12.2-16.4c1-1.6,5.4-7.6,3.2-9.5c-9.4-8.1-18.1-16.9-26.2-26.2c-8.1-9.4-15.6-19.4-22.2-29.9
					C88,64.8,82.7,55,78,45c-0.9-1.9-1.8-4.1-1.1-6.1c0.5-1.3,1.5-2.3,2.8-2.8c1.8-0.7,4-0.7,5.9-0.1c1.8,0.7,3.3,1.8,4.9,3
					c1.2,0.9,2.3,1.9,3.6,2.7c7.1,4.8,16.4,5.3,24.8,3.5c1.1-0.2,2.1-0.5,3.2-0.8c7.2-2,14-5.4,20.8-8.4
					c12.3-5.4,25.3-9.6,38.8-10.3c24.5-1.2,46.6,11.5,53.8,35.4c2.9,9.6,3.1,19.9,1.3,29.8c-1.2,6.7-4.5,14.3-3.9,21.2
					c0.4,4.9,4.1,10.8,9.5,11.1c-6.8,3.5-14.1,6-21.6,7.6c0.1,4.8,0.1,9.6,0.2,14.4c0-2.2-4.3-5.8-5.9-7.1c-2.5-2-5.6-3.7-8.8-4.2
					c-6.4-1.1-12.3,2.8-15,8.5c-2.2,4.6-2.2,9.9-0.8,14.8c2.8,9.3,11,16.5,20.3,19.6c9.3,3.1,19.6,2.6,29.1,0.1
					c16.4-4.3,31.8-13.4,47-20.7c16.5-8,33-15.9,49.6-23.9c7.6-3.7,15.2-7.3,22.8-11c0,0,0.3,6.7,0.3,7.4c-0.2,2.6-0.8,5.1-1.6,7.6
					c-1.5,5.1-3.9,10-6.1,14.9c-3.5,7.7-6.8,15.6-6.7,24.2c0,0.6,0.1,1.2,0.5,1.5c0.4,0.3,0.9,0.2,1.4,0c3.2-1,6.2-2.8,9.2-4.1
					c3-1.3,6-2.5,9.1-3.7c1.3-0.5,5.6-2.3,5.3,0.8c-3,25.4-11.1,49.7-22.8,72.5c-11,21.2-24.2,42.8-42.4,58.8
					c-6,5.3-12.6,9.9-19.7,13.6c-12.9,6.8-26.5,10.8-40.5,12.9c-12.1,1.8-24.4,2.1-36.8,1.3c-0.1,0-0.2,0-0.3,0
					c-19.7-1.1-39.3-4.8-58.1-10.6c-12.3-3.8-24.7-8.8-35.7-15.8"/>
				<path class="st7" d="M180.8,61.9c5-3.3,10.8-3.4,12.8-0.4c1.3,2,0.7,5-1.4,7.7c-1,1.4-2.5,2.7-4.2,3.8
					c-5.1,3.3-10.8,3.4-12.8,0.3C173.3,70.3,175.8,65.2,180.8,61.9z"/>
				<path class="st6" d="M194.2,65.8c5.2-1.3,5.2-1.3,5.2-1.3"/>
				<path class="st6" d="M192,69.2c0.1,0,0.1,0,0.2,0c6.4,1.2,6.4,1.2,6.4,1.2"/>
				<path class="st6" d="M189.9,71.7c5.7,3.4,5.7,3.4,5.7,3.4"/>
				<path class="st6" d="M143.1,192.7c-2,9.7-5.2,19-7,28.7c-1.2,6.7-2.1,13.7,0.1,20.1c2.3,6.8,7.9,12.1,14.2,15.6
					c6.3,3.5,13.3,5.3,20.3,6.9c7.1,1.7,48,8.2,46.3,3.5c-0.6-1.7-1.4-3.3-1.6-5.1s0.1-3.8,1.4-4.9c1.4-1.2,3.4-1.3,5.3-1.3
					c16.4-0.1,34.3-2.6,47.3-13.5c2.6-2.1,4.9-4.6,7-7.2c3.5-4.2,9.6-10.8,10.8-16.3c1.3-6-14.8-0.7-17.3-0.3
					c-9.1,1.2-18.3,0.8-27.3-1.3c-1.1-0.2-2.2-0.5-2.9-1.3c-1.1-1-1.4-2.7-1-4.2c0.3-1.5,1.2-2.8,2.1-4c3.5-5,7.6-9.6,11.7-14.2
					c3-3.3,7.7-7.4,7.7-12.3c-7.2,4.5-13.8,8.7-22.1,11.1c-8.4,2.5-17.2,3.6-25.9,4.1c-7,0.4-14.1,0.3-21-1.2
					c-5.7-1.3-16.1-4.7-18.5-10.7"/>
				<path class="st6" d="M108.8,177.6c0,0.1-4.7,0.1-5.2,0.2c-2.2,0.2-4.4,0.4-6.6,0.5c-4.4,0.3-8.8,0.6-13.2,0.9
					c-8.7,0.4-17.5,0.5-26.2-0.1c-2.5-0.2-5-0.4-7.5-0.1c-2.5,0.2-5,1-6.9,2.6c3.8,4.9,7.9,9.6,13,13.2c5.1,3.5,11.2,5.8,17.4,5.5
					c-1.6,2.3-4.3,3.6-7,4.4c-6,1.7-12.4,0.5-18-2c0.2,7,7,12,12,15.9c2.9,2.3,6,4.4,9.2,6.1c0.8,0.4,10.1,4.6,10.2,4.1
					c4.3-17.8,15.2-32.9,26-47.4C106.9,180.2,108.1,179,108.8,177.6z"/>
				<path class="st6" d="M208.4,329c7.3,17.7,14.5,35.4,21.7,53.1"/>
				<path class="st6" d="M208.4,329C208.4,329,208.3,329,208.4,329"/>
				<path class="st6" d="M245.2,327.9c-0.9,2.8-1.7,5.7-2.4,8.7c-3.5,14.6-4.7,31.1-1.2,45.6c0.5,1.9,1,3.8,1.6,5.6c0.3,1,0.7,2,1,3
					c0.2,0.8,0.4,1.7,0.3,2.5c-0.2,4.5-4.4,7.4-7.7,9.8c-4.1,3-8.6,5.2-13.4,6.8c-0.8,0.2-1.7,0.4-2.3-0.1c-0.4-0.4-0.5-1-0.4-1.6
					c0.1-0.6,0.5-1.1,0.8-1.6c0.6-0.9,2.9-4.3,2.1-5.4c-0.6-0.8-5.1-0.3-6.3-0.3c-4.6-0.2-9.3-0.5-13.9-1c-1.3-0.1-2.6-0.3-3.7-1.1
					c-0.2-0.2-0.4-0.4-0.4-0.6c0-0.2,0.1-0.4,0.2-0.6c0.8-0.9,2-1.3,3.2-1.6c4.6-1,9.6-1.3,13.6-3.7c0.9-0.5,2.2-1.8,1.1-2.8
					c-0.3-0.3-0.6-0.4-1-0.6c-2-0.8-4-1.7-6.1-2.5c3.2-1.1,6.3-2.3,9.7-3c3.3-0.7,6.6-1.1,9.9-1.3"/>
				<path class="st6" d="M82.1,267.7c-0.1-0.4-0.2-0.7-0.4-1c-0.2,3.7-0.5,7.4-1.3,11c-0.8,3.5-1.9,7-2.9,10.5c0,0,0,0.1,0,0.1
					c0,0.1-0.1,0.2-0.1,0.3c-0.8,2.6-1.5,5.2-2.4,7.8c-3.2,10.1-6.6,20.1-9.7,30.2c-1-3.5-1.9-7-2.8-10.5c-0.8-3.2-1.4-6.5-2.9-9.5
					c-0.7,0.5-1.4,1.1-1.9,1.9c-0.2,0.3-0.3,0.6-0.4,1c-0.7,2-1.4,3.9-2.1,5.9c-6.1-4.1-9.2-11.3-13.9-17c-0.6,2.2,0.2,4.6,1,6.7
					c1.3,3.7,2.7,7.5,4,11.2c0.7,1.9,1.4,3.8,2.1,5.8c0.3,0.9,0.9,2.3-0.5,2.6c-0.7,0.2-1.3-0.1-2-0.4c-2.9-1.3-5.8-2.6-8.6-3.9
					c5.2,7.2,11,14.5,19,18.6c1.8,0.9,3.8,1.7,5.7,1.3c1.9-0.4,3.3-1.8,4.7-3.1c7.9-7.7,16-15.1,24.3-22.3c1-0.9,2-1.7,3.1-2.4
					c1.3-0.8,2.8-1.3,4.3-1.8c3-1,6-2,9-3.1c2.6-0.9,5.2-1.5,7.7-2.5c0.7-0.3,1-0.3,0.7-0.9c-0.2-0.5-1.4-1.1-1.8-1.4c0,0,0,0,0,0
					c-1.2-0.9-2.3-1.8-3.4-2.7c-4.5-3.7-8.8-7.5-12.9-11.5c-4-3.9-7.8-8.1-10.8-12.8c-0.6-1-1.2-1.9-1.7-2.9
					c-1.3-2.4-2.4-4.9-3.3-7.5c-0.2,0.2-0.2,0.5-0.1,0.8C82,266.5,82,267.1,82.1,267.7c0,0.1,0,0.3,0,0.4"/>
				<path class="st8" d="M79.8,36.1L79.8,36.1c0.3,0,1.4,2.1,1.6,2.4c0.6,0.9,1.2,1.8,1.9,2.7c1.2,1.7,2.4,3.4,3.6,5.1
					c1.2,1.7,2.4,3.4,3.7,5c1.2,1.7,2.5,3.3,3.8,4.9s2.6,3.2,3.9,4.8c1.3,1.6,2.7,3.2,4.1,4.7c1.4,1.6,2.8,3.1,4.2,4.6
					c0.2,0.2,0.5,0.5,0.7,0.8c2.2,2.3,4.5,4.6,7,6.5c7.1,5.4,16,7.8,24.8,9.8l-0.7,0.5l-22.2,16"/>
				<path class="st8" d="M139.1,87.5c-3-7.9-6-15.8-9-23.6c-1.6-4.1-3.1-8.2-4.7-12.3c-0.6-1.5-1.1-3-1.7-4.4
					c-0.5-1.2-0.6-2.5-1.7-2.8c-0.3-0.1-0.6-0.1-1.1,0c-9.1,2.5-19.5,2.2-27.3-3.1c-1.1-0.7-2.1-1.6-3.2-2.3
					c-0.8-0.6-1.7-1.2-2.6-1.7c-2.4-1.3-5.4-1.5-8.1-1.2"/>
				<line class="st8" x1="65.4" y1="326.5" x2="66.9" y2="337.1"/>
				<polyline class="st8" points="230,382.2 230.1,382.3 244.2,390.8 				"/>
			</g>
		</g>
	</g>
	<g id="Layer_1_00000016057640286865004130000007659973070445208981_" class="st9">
		<g class="st10">
			<g>
				<rect id="SVGID_1_" x="-356.6" y="-143.7" class="st11" width="1117.1" height="1117.1"/>
			</g>
			<g>
				<g>
					<defs>
						
							<rect id="SVGID_00000158007253112412532980000003036538390478924194_" x="-356.6" y="-143.7" width="1117.1" height="1117.1"/>
					</defs>
					<clipPath id="SVGID_00000128465702856916992740000007333192189110178453_">
						<use xlink:href="#SVGID_00000158007253112412532980000003036538390478924194_"  style="overflow:visible;"/>
					</clipPath>
					
						<g transform="matrix(1 0 0 1 0 9.536743e-07)" style="clip-path:url(#SVGID_00000128465702856916992740000007333192189110178453_);">
						
							<image style="overflow:visible;enable-background:new    ;" width="2049" height="2048" xlink:href="D32F6F45000D4E13.jpeg"  transform="matrix(0.5452 0 0 0.5452 -356.5637 -143.4563)">
						</image>
					</g>
				</g>
			</g>
			<g>
				
					<rect id="SVGID_00000075870675273416465930000018215355543332930741_" x="-356.6" y="-143.7" class="st13" width="1117.1" height="1117.1"/>
			</g>
		</g>
	</g>
	<path class="st14" d="M144.2,40"/>
</g>
</svg>
