<?xml version="1.0" encoding="utf-8"?>
<!-- Generator: Adobe Illustrator 26.5.0, SVG Export Plug-In . SVG Version: 6.00 Build 0)  -->
<svg version="1.1" id="Layer_1" xmlns="http://www.w3.org/2000/svg" xmlns:xlink="http://www.w3.org/1999/xlink" x="0px" y="0px"
	 viewBox="0 0 800 550.8" style="enable-background:new 0 0 800 550.8;" xml:space="preserve">
<style type="text/css">
	.st0{fill:#94CCE9;}
	.st1{fill:#FFFFFF;}
	.st2{font-family:'NotoSans-Regular';}
	.st3{font-size:32px;}
</style>
<g id="XMLID_00000051360276892391400470000012909682882919522697_">
	<g>
		<path class="st0" d="M719.8,261.7c16.5,30.4,14.8,67,8.6,100.8c-3.8,21-9.6,42.3-22.3,59.6c-12.8,17.3-33.9,30-55.5,27.9
			c-19-1.9-35-14.3-52.1-22.6c-31.8-15.4-68.4-17-103.8-18.2c-9.7-0.3-19.5-0.7-28.9,1.8c-20.2,5.3-34.9,22.4-53.5,31.8
			c-28.4,14.3-63.7,8.9-92.2-5.3c-13.9-6.9-27-15.8-42.2-19.1c-19.6-4.2-39.7,1.6-59.6,4.3c-35.2,4.9-75-1.6-98-28.2
			c-25.4-29.4-22.1-74.1-6.4-109.4c2.4-5.4,5.2-11.4,3.6-17.1c-1-3.6-3.7-6.6-6.6-9.1c-8.1-7.1-18.1-11.8-26.8-18.1
			c-8.7-6.4-16.5-15.4-16.9-26c-0.7-17.5,18.5-29.5,36.1-32.9l1.2-1.7c1.8-17.9,14.9-32.5,27.5-45.6c28.1-29.4,58.6-59.8,98.4-70
			c66.4-17,136.3,27.3,203.5,13.7c20.3-4.1,39.2-13.4,59.5-17.7c29.1-6.2,60.9-1.4,85.8,14.7c24.9,16.1,42.1,43.6,43.7,72.7
			c0.4,7.5-0.1,15.3,2.5,22.4c3.3,9.1,11.3,15.7,19.2,21.6C672.2,212.7,703.4,231.6,719.8,261.7z"/>
	</g>
</g>
<g>
	<path class="st0" d="M277.4,482.3c-12.4-14.9-27-18.6-45.5-15.1c-12.8,2.4-25.8,6.1-36.3,14.2c-0.9,0.7-1.8,1.4-2.6,2.2
		c-5.1,4.5-9.1,10.5-10.6,17.1c0.1,0.1,0.1-0.2,0-0.2c-0.1,0-0.2,0.2-0.2,0.3c-0.5,4-1.4,8.3-1.4,12.3c-0.5,4.4-1.2,8.8-2.1,13.1
		c-0.8,3.7-2.1,7.8-5.4,9.7c7.3-2.4,14.4-4.9,22.1-5.9c7.8-1,15.7-1.1,23.5-1.1c15.5,0,31.4,0.5,46.5-3.8c9-2.5,18.5-7.3,21.3-16.2
		C289.6,499.6,283.7,489.9,277.4,482.3z"/>
</g>
<text transform="matrix(1 0 0 1 122.1113 239.5253)"><tspan x="0" y="0" class="st1 st2 st3">Computer Science Student Looking </tspan><tspan x="101.5" y="38.4" class="st1 st2 st3">To Get Their Feet Wet!</tspan></text>
<g>
	<path class="st0" d="M665.6,81.5c-0.2-4.5-5.8-6-9.6-4.9c-0.5,0.1-1,0.3-1.5,0.6c-0.2,0.1-6.3,3-7.4,6c-1,3-0.2,6.5,2.1,8.6
		c2.3,2.1,5.9,2.8,8.8,1.6c1.7-0.7,3.1-1.9,4.2-3.4c1.1-1.5,1.9-3.1,2.5-4.8c0.3-0.9,0.6-1.8,0.7-2.7
		C665.6,82.1,665.6,81.8,665.6,81.5z"/>
</g>
<g>
	<path class="st0" d="M95.9,278.6c-0.6-6.3-14-8.4-23.2-6.8c-1.2,0.2-2.4,0.5-3.6,0.8c-0.5,0.2-15.3,4.2-17.8,8.4
		c-2.5,4.2-0.4,9.1,5.2,12.1c5.6,3,14.2,3.9,21.3,2.2c4.1-1,7.5-2.7,10.1-4.8c2.6-2,4.6-4.4,6.1-6.8c0.8-1.2,1.5-2.5,1.8-3.8
		C95.9,279.5,95.9,279,95.9,278.6z"/>
</g>
</svg>
